HIERARCHY
ROOT hip
{
	OFFSET 0.000000 0.000000 0.000000 
	CHANNELS 6 Xposition Yposition Zposition Xrotation Zrotation Yrotation
	JOINT abdomen
	{
		OFFSET 0.000000 3.402643 0.000000 
		CHANNELS 3 Xrotation Zrotation Yrotation
		JOINT chest
		{
			OFFSET 0.000000 8.438565 -0.680529 
			CHANNELS 3 Xrotation Zrotation Yrotation
			JOINT neck
			{
				OFFSET 0.000000 10.207942 -0.272212 
				CHANNELS 3 Xrotation Zrotation Yrotation
				JOINT head
				{
					OFFSET 0.000000 3.130431 0.000000 
					CHANNELS 3 Xrotation Zrotation Yrotation
					End Site
					{
						OFFSET 0.000000 3.130435 0.000000 
					}
				}
			}
			JOINT lCollar
			{
				OFFSET 3.470700 6.669187 -0.816635 
				CHANNELS 3 Yrotation Zrotation Xrotation
				JOINT lShldr
				{
					OFFSET 3.198488 0.000000 0.000000 
					CHANNELS 3 Zrotation Yrotation Xrotation
					JOINT lForeArm
					{
						OFFSET 10.139888 0.000000 0.000000 
						CHANNELS 3 Yrotation Zrotation Xrotation
						JOINT lHand
						{
							OFFSET 8.370511 0.000000 0.000000 
							CHANNELS 3 Zrotation Yrotation Xrotation
							End Site
							{
								OFFSET 4.083176 0.000000 0.000000 
							}
						}
					}
				}
			}
			JOINT rCollar
			{
				OFFSET -3.470700 6.669187 -0.816635 
				CHANNELS 3 Yrotation Zrotation Xrotation
				JOINT rShldr
				{
					OFFSET -3.198488 0.000000 0.000000 
					CHANNELS 3 Zrotation Yrotation Xrotation
					JOINT rForeArm
					{
						OFFSET -10.139888 0.000000 0.000000 
						CHANNELS 3 Yrotation Zrotation Xrotation
						JOINT rHand
						{
							OFFSET -8.370511 0.000000 0.000000 
							CHANNELS 3 Zrotation Yrotation Xrotation
							End Site
							{
								OFFSET -4.083176 0.000000 0.000000 
							}
						}
					}
				}
			}
		}
	}
	JOINT lThigh
	{
		OFFSET 5.308129 -1.633274 1.361059 
		CHANNELS 3 Xrotation Zrotation Yrotation
		JOINT lShin
		{
			OFFSET -2.041588 -20.007561 0.000000 
			CHANNELS 3 Xrotation Zrotation Yrotation
			JOINT lFoot
			{
				OFFSET 0.000000 -19.190928 -1.224953 
				CHANNELS 3 Xrotation Yrotation Zrotation
				End Site
				{
					OFFSET 0.000000 -2.449906 4.627600 
				}
			}
		}
	}
	JOINT rThigh
	{
		OFFSET -5.308129 -1.633274 1.361059 
		CHANNELS 3 Xrotation Zrotation Yrotation
		JOINT rShin
		{
			OFFSET 2.041588 -20.007561 0.000000 
			CHANNELS 3 Xrotation Zrotation Yrotation
			JOINT rFoot
			{
				OFFSET 0.000000 -19.190928 -1.224953 
				CHANNELS 3 Xrotation Yrotation Zrotation
				End Site
				{
					OFFSET 0.000000 -2.449906 4.627600 
				}
			}
		}
	}
}
MOTION
Frames: 18
Frame Time: 0.011111
8.141653 50.666378 -3.806636 -174.483963 -179.182205 3.688471 30.804693 -8.592044 -10.119925 -19.931633 -0.968611 -2.098643 -13.134075 -8.414459 -2.324320 36.185825 1.986964 -3.415817 2.424333 -4.683778 1.783845 -69.241806 -68.443481 67.540665 -77.919655 7.353538 21.234028 8.524705 12.647240 -59.368538 -2.738486 -1.140572 2.095526 8.025906 73.237068 -50.491356 72.607201 -8.778823 18.397655 -8.534408 -12.637552 60.423687 2.606982 22.488733 9.784609 35.162537 -5.023145 -5.510197 -17.222576 5.140893 -1.382161 -9.452294 -10.058098 16.696728 37.209690 4.856696 5.737082 -26.564409 -3.147259 0.637314 
8.280590 50.711788 -3.807237 -174.556290 -179.305969 4.289412 30.706581 -8.431950 -9.629214 -19.960464 -1.271061 -1.977562 -13.531614 -8.012457 -2.191722 37.537144 0.948938 -3.078551 2.424333 -4.683778 1.783845 -69.443657 -67.990807 67.525932 -77.666954 7.445833 21.086946 8.524705 12.647240 -59.026749 -2.738486 -1.140572 2.095526 7.121214 73.863022 -51.288818 73.557869 -8.594567 18.884638 -8.534408 -12.637552 60.902203 1.091946 23.370270 9.832180 36.701931 -4.906430 -5.698351 -15.241941 4.562843 -1.814084 -9.158825 -9.823443 16.372065 36.882324 4.876647 5.714265 -26.513018 -3.504958 0.477870 
8.420730 50.762310 -3.815958 -174.619476 -179.438293 4.910420 30.616610 -8.260646 -9.196259 -19.881907 -1.570199 -1.888412 -12.732209 -7.785017 -2.051656 36.814228 0.355187 -2.652234 2.424333 -4.683778 1.783845 -69.308525 -67.709435 67.430016 -77.668205 7.447920 21.096407 8.524705 12.647240 -58.597061 -2.738486 -1.140572 2.095526 5.872976 74.627800 -52.378265 74.408005 -8.405515 19.330151 -8.534408 -12.637552 60.882675 -0.507966 24.286583 9.754677 38.227909 -4.799426 -5.875874 -13.157025 4.084682 -2.147119 -8.810897 -9.594886 16.029623 36.545753 4.895886 5.671592 -26.538368 -3.836355 0.321565 
8.545534 50.811626 -3.818665 -174.663742 -179.501053 5.534251 30.575499 -8.093061 -8.779293 -19.891243 -1.862576 -1.797308 -12.674390 -7.316951 -1.894718 37.305676 -0.860293 -2.288684 2.424333 -4.683778 1.783845 -69.194199 -67.417976 67.031677 -77.569725 7.481419 21.035810 8.524705 12.647240 -58.460339 -2.738486 -1.140572 2.095526 4.215472 75.549156 -53.671684 75.230118 -8.199217 19.762934 -8.534408 -12.637552 60.892433 -2.100071 25.092575 9.636105 39.721996 -4.692177 -6.048670 -11.125852 3.635182 -2.430671 -8.466228 -9.472324 15.649925 36.208195 4.925416 5.621597 -26.552021 -4.066477 0.211617 
8.662817 50.861549 -3.812951 -174.668549 -179.620056 6.045633 30.559629 -7.880202 -8.235516 -19.959118 -2.224685 -1.673832 -12.391463 -7.215341 -1.689742 37.589695 -1.423187 -1.718439 2.424333 -4.683778 1.783845 -69.142159 -67.008293 66.878365 -77.618385 7.463694 21.061380 8.524705 12.647240 -57.913467 -2.738486 -1.140572 2.095526 2.610976 76.432182 -54.818089 76.095558 -7.958883 20.231022 -8.534408 -12.637552 60.775249 -3.564883 25.893463 9.534578 41.085873 -4.584975 -6.218024 -9.293611 3.230278 -2.636235 -8.130019 -9.254522 15.408485 35.871349 4.944844 5.578808 -26.540194 -4.254529 0.142071 
8.779201 50.916885 -3.812049 -174.566010 -179.471741 6.453660 30.717485 -8.017609 -7.811789 -20.027195 -2.479088 -1.550833 -11.958505 -6.796227 1.671512 37.842098 0.043066 -3.664918 2.424333 -4.683778 1.783845 -69.148392 -66.646599 66.510910 -77.597115 7.468631 21.048332 8.524705 12.647240 -57.434944 -2.738486 -1.140572 2.095526 0.863994 77.340874 -55.992828 76.942917 -7.699035 20.694952 -8.534408 -12.637552 60.628769 -4.726555 26.337297 9.408307 42.320072 -4.484946 -6.366691 -7.402720 3.134671 -2.770947 -7.742303 -9.305319 15.230800 35.573437 4.964666 5.548498 -26.537077 -4.513557 0.024229 
8.884757 50.992371 -3.813854 -174.464142 -179.083954 6.887247 30.980976 -8.379943 -7.554146 -20.173561 -2.686617 -1.443765 -11.822811 -6.513193 1.931023 38.435162 -0.595758 -3.422447 2.424333 -4.683778 1.783845 -69.104378 -66.295456 66.005424 -77.609688 7.468669 21.059929 8.524705 12.647240 -56.995495 -2.738486 -1.140572 2.095526 -0.992222 78.236870 -57.040165 77.827118 -7.395420 21.194242 -8.534408 -12.637552 60.726425 -5.790849 26.419600 9.099609 43.435532 -4.384485 -6.493568 -5.478392 3.300688 -2.852094 -7.414381 -9.642315 14.988728 35.334713 4.983836 5.523791 -26.559303 -4.638192 -0.049433 
8.985500 51.048000 -3.801223 -174.566055 -178.977188 7.309118 30.979071 -8.416717 -7.126854 -20.222178 -2.959371 -1.319959 -11.934072 -6.203743 2.163420 39.302418 -1.281185 -3.325708 2.424333 -4.683778 1.783845 -69.131859 -66.031174 65.480362 -77.647026 7.452285 21.074881 8.524705 12.647240 -56.233776 -2.738486 -1.140572 2.095526 -3.127507 79.135384 -58.243351 78.696449 -7.061815 21.700432 -8.534408 -12.637552 60.882675 -7.176850 26.771271 8.686155 44.529442 -4.299729 -6.613710 -3.693252 3.497550 -2.921059 -7.389692 -9.685171 14.771739 35.166359 4.994258 5.492964 -26.566328 -4.873070 -0.151622 
9.084441 51.066345 -3.784983 -174.627579 -179.066895 7.582722 30.961008 -8.310755 -6.471807 -20.133869 -3.296983 -1.173117 -12.026782 -5.900311 2.362277 39.854698 -1.779725 -3.110068 2.424333 -4.683778 1.783845 -69.151413 -65.903839 64.993294 -77.746529 7.419788 21.135220 8.524705 12.647240 -55.110729 -2.738486 -1.140572 2.095526 -5.720323 80.169914 -59.961903 79.531006 -6.705585 22.191326 -8.534408 -12.637552 60.814312 -8.494947 27.347624 8.412946 45.564518 -4.192392 -6.738276 -2.043588 3.739925 -2.964076 -7.316932 -9.476587 14.680760 34.997440 5.003805 5.480239 -26.568731 -5.124834 -0.264628 
9.168645 51.097019 -3.775660 -174.629410 -178.974472 7.731121 31.046288 -8.442032 -5.846457 -20.104258 -3.606396 -0.994707 -12.012118 -5.620718 2.551445 40.238209 -2.171212 -2.849893 2.424333 -4.683778 1.783845 -69.157997 -65.747383 64.477684 -77.871567 7.371455 21.199924 8.524705 12.647240 -54.007214 -2.738486 -1.140572 2.095526 -8.428142 81.182976 -61.552277 80.275299 -6.356590 22.652164 -8.534408 -12.637552 60.286964 -9.520356 27.650789 8.322829 46.538597 -4.114470 -6.848503 -0.533093 4.074239 -3.016827 -7.218690 -9.485779 14.680508 34.828487 5.013347 5.468346 -26.555555 -5.277524 -0.321656 
9.235708 51.149048 -3.772352 -174.670151 -178.837006 7.895030 30.981615 -8.581010 -5.281025 -20.250826 -3.889508 -0.824613 -11.674720 -5.480520 2.784864 40.667347 -2.461635 -2.567599 2.424333 -4.683778 1.783845 -69.201988 -65.306946 63.934452 -77.980103 7.334548 21.271261 8.524705 12.647240 -53.030647 -2.738486 -1.140572 2.095526 -11.023355 82.172707 -62.741039 80.940208 -6.015546 23.082190 -8.534408 -12.637552 59.320171 -10.467741 27.817806 8.175452 47.394455 -4.036536 -6.947703 0.804666 4.188800 -3.070992 -7.102530 -9.603655 14.592336 34.639111 5.033256 5.438458 -26.503288 -5.422013 -0.370002 
9.289838 51.201378 -3.775961 -174.690674 -178.663544 7.996733 30.994619 -8.818260 -4.600950 -20.250660 -4.179207 -0.624518 -11.688958 -5.066712 2.901079 41.345581 -2.925033 -2.528382 2.424333 -4.683778 1.783845 -69.276733 -65.090813 63.576069 -78.134720 7.275743 21.357567 8.524705 12.647240 -51.936901 -2.738486 -1.140572 2.095526 -14.149519 83.040932 -64.663750 81.588837 -5.651032 23.519058 -8.534408 -12.637552 58.577984 -11.296688 27.882750 7.930960 48.123169 -3.968053 -7.000071 1.799921 4.311308 -3.104860 -6.968631 -9.752471 14.493941 34.401604 5.042875 5.400251 -26.399006 -5.516164 -0.393903 
9.340060 51.241673 -3.775360 -174.660934 -178.457092 7.957517 31.143536 -9.084521 -3.931586 -20.181982 -4.409812 -0.430639 -12.186732 -4.809939 3.090970 42.438225 -3.178163 -2.371016 2.424333 -4.683778 1.783845 -69.419533 -65.059303 62.981236 -78.288506 7.214900 21.435432 8.524705 12.647240 -51.106823 -2.738486 -1.140572 2.095526 -18.451426 84.010704 -67.599922 82.233566 -5.249131 23.975058 -8.534408 -12.637552 58.265484 -11.923018 27.887867 7.806010 48.761688 -3.900009 -7.093164 2.570490 4.537402 -3.128750 -6.813922 -9.910037 14.513499 34.182251 5.062030 5.377006 -26.244946 -5.672577 -0.421445 
9.392690 51.279560 -3.763030 -174.689423 -178.355988 7.928918 31.190104 -9.236432 -3.425467 -20.191654 -4.612818 -0.290027 -12.407802 -4.615592 3.347050 43.164116 -3.334394 -1.995105 2.424333 -4.683778 1.783845 -69.377434 -64.932907 62.034512 -78.434067 7.160584 21.531153 8.524705 12.647240 -50.306046 -2.738486 -1.140572 2.095526 -24.396641 85.170815 -71.888756 82.796082 -4.871943 24.400965 -8.534408 -12.637552 57.894390 -12.623718 27.969124 7.661414 49.341721 -3.851143 -7.140266 3.029162 4.753034 -3.149495 -6.796422 -9.941156 14.730135 34.003445 5.072445 5.353977 -26.184904 -5.900277 -0.513902 
9.430881 51.303925 -3.758519 -174.834610 -178.346161 7.940182 30.956518 -9.307704 -2.961295 -20.279764 -4.767320 -0.153378 -12.006091 -4.145554 3.517586 43.186172 -4.057391 -1.830601 2.424333 -4.683778 1.783845 -69.347626 -64.581573 61.050983 -78.559593 7.111854 21.605070 8.524705 12.647240 -49.602913 -2.738486 -1.140572 2.095526 -33.140179 86.336502 -78.753609 83.263199 -4.524768 24.776859 -8.534408 -12.637552 57.376812 -13.435280 28.099274 7.365863 49.812992 -3.812392 -7.191724 3.206986 4.822455 -3.161693 -6.845213 -9.902010 14.878104 33.824722 5.081940 5.331388 -26.155149 -6.120433 -0.591263 
9.455841 51.328285 -3.757617 -174.950943 -178.301392 7.967286 30.796059 -9.361959 -2.440854 -20.377710 -4.950525 -0.005110 -11.756451 -3.733366 3.632513 43.567886 -4.618208 -1.803571 2.424333 -4.683778 1.783845 -69.415810 -64.277596 60.292355 -78.673683 7.064382 21.668335 8.524705 12.647240 -48.968155 -2.738486 -1.140572 2.095526 -46.681610 87.280983 -90.414803 83.694244 -4.182987 25.157461 -8.534408 -12.637552 57.220558 -14.159424 28.132475 7.011950 50.186024 -3.783077 -7.230129 3.084165 4.812065 -3.150786 -6.862772 -9.929454 14.918159 33.655849 5.091456 5.309655 -26.116949 -6.318075 -0.675796 
9.474487 51.374290 -3.763632 -174.980209 -178.005920 8.030029 30.845028 -9.688396 -2.108361 -20.456112 -5.075098 0.121334 -11.825091 -3.504922 3.752228 44.294930 -4.758278 -1.723885 2.424333 -4.683778 1.783845 -69.323471 -64.034729 59.601009 -78.875343 6.983624 21.789461 8.524705 12.647240 -48.255253 -2.738486 -1.140572 2.095526 107.724266 92.021957 65.893898 84.032310 -3.889037 25.459179 -8.534408 -12.637552 57.005722 -14.539388 27.808754 6.665217 50.392357 -3.763518 -7.248428 2.883744 4.564603 -3.128233 -6.793283 -10.250460 14.969365 33.506550 5.101977 5.290049 -26.174465 -6.434312 -0.723456 
9.482907 51.419998 -3.771149 4.989672 -2.336041 -171.822372 30.837450 -10.024181 -1.845175 -20.465904 -5.170732 0.221803 -11.882379 -3.278444 3.910737 44.995838 -4.799391 -1.526330 2.424333 -4.683778 1.783845 -69.312386 -63.634262 58.705860 -79.197441 6.845890 21.975105 8.524705 12.647240 -47.708385 -2.738486 -1.140572 2.095526 71.296654 91.939217 31.529154 84.324821 -3.621285 25.755901 -8.534408 -12.637552 56.517437 -14.823119 27.370052 6.228465 50.421680 -3.771089 -7.244619 2.805878 3.990514 -3.110315 -6.702661 -10.589298 15.020269 33.356976 5.116942 5.260962 -26.189445 -6.608804 -0.795469 
